<?xml version="1.0" encoding="utf-8"?>

<!DOCTYPE svg PUBLIC "-//W3C//DTD SVG 1.1//EN" "http://www.w3.org/Graphics/SVG/1.1/DTD/svg11.dtd">
<svg version="1.1" id="Layer_1" xmlns="http://www.w3.org/2000/svg" xmlns:xlink="http://www.w3.org/1999/xlink" x="0px" y="0px"
	 viewBox="0 0 1930.93 1672.624" enable-background="new 0 0 1930.93 1672.624" xml:space="preserve">
<g>
	<g>
		<polyline points="1427.56,1635.932 1445.31,1605.192 1445.33,1605.142 		"/>
		<line x1="1445.33" y1="1605.142" x2="1445.31" y2="1605.192"/>
		<line x1="1587.3" y1="1359.272" x2="1587.3" y2="1359.252"/>
		<line x1="1676.04" y1="1205.572" x2="1676.03" y2="1205.562"/>
		<line x1="1747.03" y1="1082.612" x2="1747.02" y2="1082.612"/>
		<line x1="1764.78" y1="1051.872" x2="1764.77" y2="1051.872"/>
		<line x1="1001.61" y1="836.682" x2="966.12" y2="836.682"/>
	</g>
	<g>
		<line x1="539.52" y1="1636.312" x2="504.02" y2="1636.312"/>
		<line x1="1355.92" y1="1513.352" x2="1328.62" y2="1518.082"/>
		<line x1="983.24" y1="867.852" x2="983.22" y2="867.802"/>
		<polyline points="983.24,867.852 983.22,867.802 965.47,837.062 		"/>
	</g>
	<g>
		<line x1="59.67" y1="867.422" x2="41.92" y2="836.682"/>
		<line x1="130.64" y1="980.892" x2="112.92" y2="959.642"/>
		<line x1="964.82" y1="836.682" x2="947.07" y2="867.422"/>
	</g>
	<g>
		<polyline points="503.37,36.682 485.62,67.422 485.6,67.472 		"/>
		<line x1="485.62" y1="67.422" x2="485.6" y2="67.472"/>
		<line x1="379.14" y1="251.872" x2="375.73" y2="274.312"/>
		<line x1="361.39" y1="282.612" x2="360.03" y2="303.872"/>
		<line x1="297.22" y1="422.112" x2="290.4" y2="405.572"/>
		<line x1="218.72" y1="569.912" x2="201.66" y2="559.272"/>
		<line x1="140.22" y1="717.702" x2="112.92" y2="712.972"/>
		<line x1="964.82" y1="835.932" x2="929.32" y2="835.932"/>
	</g>
	<g>
		<line x1="1426.92" y1="36.312" x2="1391.42" y2="36.312"/>
		<line x1="947.72" y1="804.822" x2="947.7" y2="804.772"/>
		<polyline points="947.7,804.772 947.72,804.822 965.47,835.562 		"/>
	</g>
	<g>
		<line x1="1889.01" y1="835.932" x2="1871.26" y2="805.192"/>
		<line x1="1338.82" y1="237.682" x2="1321.08" y2="221.132"/>
		<line x1="1321.07" y1="266.052" x2="1303.33" y2="251.872"/>
		<line x1="1267.83" y1="351.182" x2="1250.09" y2="344.092"/>
		<line x1="1250.08" y1="379.562" x2="1232.34" y2="374.832"/>
		<line x1="1498.56" y1="159.642" x2="1498.55" y2="159.652"/>
		<polygon points="1426.92,1636.312 539.52,1636.312 606.41,1633.952 669.22,1629.222 727.9,1622.122 782.54,1612.662 
			833.05,1600.842 879.44,1586.662 921.79,1570.102 959.96,1551.212 994.16,1529.882 1024.18,1506.242 1050.1,1480.262 
			1071.96,1451.862 1089.69,1421.152 1103.37,1387.982 1112.92,1352.552 1118.37,1314.752 1119.74,1274.522 1117.01,1231.992 
			1110.17,1186.942 1099.27,1139.752 1084.26,1090.122 1065.14,1038.082 1041.94,983.712 1014.54,926.772 983.24,867.852 
			1000.96,898.542 1071.96,1021.502 1071.96,1021.512 1089.7,1052.242 1107.45,1082.982 1160.7,1175.202 1178.44,1205.942 
			1213.94,1267.422 1231.69,1298.162 1249.44,1328.902 1267.18,1359.642 1284.93,1390.392 1338.18,1482.612 1355.92,1513.352 		"/>
		<polygon points="1889.01,836.682 1871.26,867.422 1853.52,898.162 1853.51,898.162 1835.77,928.902 1818.02,959.642 
			1800.27,990.392 1747.02,1082.612 1729.28,1113.352 1693.78,1174.832 1676.03,1205.562 1658.29,1236.302 1658.29,1236.312 
			1640.54,1267.042 1640.54,1267.052 1622.79,1297.792 1605.04,1328.532 1587.3,1359.252 1569.55,1390.002 1569.55,1390.012 
			1551.8,1420.742 1551.8,1420.752 1534.05,1451.482 1534.05,1451.492 1516.3,1482.232 1498.58,1512.932 1498.56,1512.972 
			1480.83,1543.672 1480.81,1543.712 1463.08,1574.412 1463.06,1574.452 1445.33,1605.142 1476.73,1546.042 1504.03,1489.292 
			1527.25,1434.892 1546.3,1383.022 1561.36,1333.222 1572.28,1285.962 1579.11,1241.032 1581.84,1198.442 1580.48,1158.332 
			1575,1120.412 1565.45,1084.982 1551.8,1051.872 1534.04,1021.102 1512.23,992.782 1486.25,966.722 1456.25,943.102 
			1422.09,921.802 1383.89,902.902 1341.58,886.352 1295.12,872.152 1244.61,860.322 1190,850.872 1131.32,843.772 1068.51,839.042 
			1001.61,836.682 		"/>
		<polygon points="521.77,67.052 504.02,36.312 1391.42,36.312 1324.52,38.672 1261.73,43.402 1203.01,50.502 1148.43,59.952 
			1097.89,71.782 1051.47,85.972 1009.16,102.522 970.92,121.442 936.82,142.702 906.76,166.372 880.82,192.382 858.98,220.752 
			841.23,251.492 827.59,284.572 818.03,320.062 812.56,357.912 811.2,398.142 813.92,440.662 820.75,485.552 831.67,532.872 
			846.69,582.532 865.85,634.672 889,688.922 916.29,745.652 947.7,804.772 929.97,774.082 929.95,774.042 912.22,743.342 
			912.2,743.302 894.48,712.602 876.73,681.862 858.98,651.122 858.98,651.112 841.23,620.382 841.23,620.372 823.48,589.642 
			823.48,589.632 805.74,558.902 787.99,528.162 770.24,497.412 752.49,466.672 734.74,435.932 717,405.192 646,282.232 
			628.26,251.492 557.26,128.532 539.52,97.792 		"/>
		<polygon points="556.62,1543.712 503.37,1635.932 485.62,1605.192 467.88,1574.452 414.63,1482.232 396.88,1451.492 
			379.14,1420.752 308.14,1297.792 290.4,1267.052 237.15,1174.832 219.41,1144.092 219.4,1144.092 201.66,1113.352 
			183.91,1082.612 166.16,1051.872 148.42,1021.142 148.41,1021.132 130.67,990.402 130.66,990.392 95.17,928.902 77.42,898.162 
			59.67,867.422 95.14,924.132 130.64,976.162 166.15,1023.472 201.77,1066.182 237.14,1103.882 272.64,1136.992 308.14,1165.362 
			343.65,1189.022 379.15,1207.942 414.63,1222.122 450.13,1231.582 485.63,1236.312 521.12,1236.312 556.61,1231.582 
			592.12,1222.122 627.62,1207.932 663.12,1189.012 698.57,1165.392 734.09,1137.002 769.61,1103.882 805.04,1066.102 
			840.61,1023.462 876.01,976.292 911.59,924.142 947.07,867.422 929.32,898.162 911.58,928.902 911.56,928.922 893.83,959.642 
			893.83,959.652 876.08,990.392 876.07,990.402 858.33,1021.132 858.32,1021.142 840.58,1051.872 822.84,1082.612 822.83,1082.622 
			805.09,1113.352 805.08,1113.352 787.34,1144.092 787.33,1144.092 769.59,1174.832 751.84,1205.572 734.1,1236.312 
			734.09,1236.312 716.35,1267.052 716.34,1267.052 698.6,1297.792 663.1,1359.272 645.36,1390.012 645.35,1390.012 
			627.61,1420.752 609.86,1451.492 592.11,1482.232 574.36,1512.972 		"/>
		<polygon points="929.32,835.932 41.92,835.932 112.92,712.972 130.66,682.232 148.41,651.492 201.66,559.272 219.4,528.532 
			237.15,497.792 254.9,467.052 290.4,405.572 308.14,374.832 343.64,313.352 361.39,282.612 379.14,251.872 396.88,221.132 
			414.63,190.392 432.38,159.642 467.88,98.162 485.6,67.472 454.3,126.392 426.9,183.332 403.7,237.702 384.6,289.702 
			369.57,339.372 358.67,386.572 351.83,431.622 349.1,474.142 350.47,514.372 355.92,552.172 365.47,587.602 379.15,620.772 
			396.88,651.482 418.74,679.882 444.66,705.872 474.68,729.512 508.85,750.812 547.05,769.722 589.4,786.282 635.79,800.462 
			686.3,812.282 740.94,821.742 799.62,828.842 862.43,833.572 		"/>
		<polygon points="1871.26,805.192 1835.69,748.312 1800.3,696.452 1764.8,649.152 1729.31,606.602 1693.78,568.732 
			1658.25,535.592 1622.81,507.262 1587.31,483.612 1551.79,464.682 1516.31,450.502 1480.8,441.042 1445.32,436.312 
			1409.82,436.312 1374.33,441.042 1338.82,450.502 1303.34,464.682 1267.83,483.612 1232.33,507.262 1196.88,535.592 
			1161.33,568.752 1125.83,606.582 1090.33,649.152 1054.83,696.452 1019.44,748.312 983.87,805.192 1001.61,774.452 
			1001.64,774.402 1019.36,743.712 1019.37,743.702 1037.11,712.972 1054.86,682.232 1072.61,651.492 1090.35,620.752 
			1161.35,497.792 1179.09,467.052 1250.09,344.092 1267.83,313.352 1285.58,282.612 1321.08,221.132 1338.82,190.392 
			1356.57,159.642 1392.07,98.162 1409.82,67.422 1427.56,36.682 1445.31,67.422 1463.06,98.162 1480.81,128.902 1498.55,159.652 
			1569.55,282.612 1587.3,313.352 1605.04,344.092 1676.04,467.052 1693.78,497.792 1747.03,590.012 1764.77,620.742 
			1764.78,620.752 1782.52,651.492 1800.27,682.232 1818.02,712.962 1818.02,712.972 1835.75,743.692 1835.77,743.712 
			1853.48,774.402 1853.52,774.452 		"/>
		<line x1="983.87" y1="805.192" x2="966.12" y2="835.932"/>
	</g>
</g>
</svg>
